<svg xmlns="http://www.w3.org/2000/svg" width="20" height="20" fill="none"><path fill="#F9FBFD" d="M12 0c-.7 0-1.3.3-1.7.8-.4.5-.6 1-.7 1.6-.3 1-.4 2-.4 3-1.8.2-3.4.7-4.8 1.5-.5-.4-1.2-.7-1.8-.7-.7 0-1.4.3-2 1-1 1.2-.8 3.2.3 4.4v1.1c0 4 4 7.3 9.1 7.3 5 0 9.2-3.3 9.2-7.3l-.1-1.1a3.5 3.5 0 0 0 .2-4.4c-.5-.7-1.2-1-1.9-1-.6 0-1.3.3-1.8.7-1.4-.8-3-1.3-4.8-1.4 0-1 0-1.9.3-2.6 0-.4.2-.7.4-.9.1-.2.2-.2.4-.2.6 0 .6.1 1 .5l.6.7c.3.3.7.5 1.2.5V1.8l-.3-.1-.4-.5C13.7.7 13 0 12 0Zm5 .2c-1.2 0-2.2 1-2.2 2.4s1 2.5 2.2 2.5c1.2 0 2.2-1.1 2.2-2.5 0-1.3-1-2.4-2.2-2.4Zm0 .8c.8 0 1.4.8 1.4 1.6 0 1-.6 1.6-1.4 1.6-.8 0-1.4-.7-1.4-1.6 0-.8.6-1.6 1.4-1.6Zm-7 5.8c4.3 0 8 2.7 8 6 0 3.1-3.7 5.8-8 5.8s-8-2.7-8-5.9 3.7-5.9 8-5.9Zm-7.4.8c.2 0 .4 0 .7.2-.8.6-1.4 1.4-1.9 2.3-.3-.7-.2-1.5.2-2 .2-.3.6-.5 1-.5Zm14.8 0c.4 0 .8.2 1 .5.4.5.5 1.3.2 2-.5-.9-1-1.7-1.9-2.3l.7-.2ZM6.9 9.8c-.8 0-1.4.7-1.4 1.6 0 .9.6 1.6 1.4 1.6.8 0 1.4-.7 1.4-1.6 0-.9-.6-1.6-1.4-1.6Zm6.2 0c-.8 0-1.4.7-1.4 1.6 0 .9.6 1.6 1.4 1.6.8 0 1.4-.7 1.4-1.6 0-.9-.6-1.6-1.4-1.6Zm-7 5.4c.5 1.2 2 2.3 3.9 2.3 1.8 0 3.4-1.1 3.9-2.3-1 .7-2.3 1.1-3.9 1.1s-3-.4-3.9-1Z"/></svg>