<svg xmlns="http://www.w3.org/2000/svg" width="" height="" fill="none"><path fill="#011C40" d="M33.9 20.9 1.35 13.99c-.25-.06-.42.45-.3.86C3.15 21.39 8.08 26 13.8 26h19.42c.13 0 .25-.16.29-.4l.65-3.98c.05-.33-.07-.68-.26-.72ZM35.9 9.56c-.09-.28-.25-.46-.42-.5l-9-2.27c-.32-.08-.63.35-.67.97-.05.62.18 1.2.51 1.27l1.02.26c.15.04.26.28.26.56v1.75c0 .33-.15.6-.33.56l-2.4-.49c-.15-.03-.27-.27-.27-.56V6.16c0-.1.02-.22.05-.3l1.05-2.97c.12-.34.13-.78.04-1.14-.1-.36-.3-.6-.51-.62L12.63 0c-.2 0-.4.16-.52.47L9.2 8.22c-.06.17-.17.26-.28.23L.66 6.8c-.17-.04-.33.07-.46.28-.13.22-.2.52-.2.84 0 1.1.08 2.16.22 3.2.03.22.13.39.26.42l33.9 7.2c.14.02.27-.14.32-.4l1.27-7.82c.06-.32.03-.67-.06-.95ZM17.32 3.3l-.46 6.18c-.03.3-.17.51-.33.48-1.17-.22-5.57-1.1-5.57-1.1-.22-.04-.34-.53-.2-.89l2.05-5.43c.06-.16.16-.25.26-.24l3.97.36c.18.01.31.31.28.64Zm6.51.83-.37 1.04c-.03.09-.05.2-.05.31v5.27c0 .34-.15.6-.33.56l-4.76-.96c-.17-.03-.3-.32-.27-.64l.49-6.4c.02-.3.15-.5.3-.49l4.75.43c.24.02.37.51.24.88Zm7.38 8.2c0 .33-.15.6-.33.56l-1.8-.4c-.16-.03-.27-.27-.27-.55V10.3c0-.34.16-.6.34-.56l1.8.45c.15.04.26.28.26.56v1.57Zm3.31-.57-.22 1.36c-.04.25-.17.42-.32.4l-1.3-.27c-.15-.03-.27-.27-.27-.56V11.2c0-.34.16-.6.34-.56l1.53.38c.18.05.3.4.24.73Z"/></svg>